<svg id="dashboard-24px" xmlns="http://www.w3.org/2000/svg" width="34" height="34" viewBox="0 0 34 34">
  <g id="Group_4417" data-name="Group 4417">
    <path id="Path_14091" data-name="Path 14091" d="M0,0H34V34H0Z" fill="none"/>
  </g>
  <g id="Group_4418" data-name="Group 4418" transform="translate(4.536 4.536)">
    <path id="Path_14092" data-name="Path 14092" d="M4.385,16.849h8.309a1.389,1.389,0,0,0,1.385-1.385V4.385A1.389,1.389,0,0,0,12.694,3H4.385A1.389,1.389,0,0,0,3,4.385V15.464A1.389,1.389,0,0,0,4.385,16.849Zm0,11.079h8.309a1.389,1.389,0,0,0,1.385-1.385V21a1.389,1.389,0,0,0-1.385-1.385H4.385A1.389,1.389,0,0,0,3,21v5.54A1.389,1.389,0,0,0,4.385,27.928Zm13.849,0h8.309a1.389,1.389,0,0,0,1.385-1.385V15.464a1.389,1.389,0,0,0-1.385-1.385H18.234a1.389,1.389,0,0,0-1.385,1.385V26.543A1.389,1.389,0,0,0,18.234,27.928ZM16.849,4.385v5.54a1.389,1.389,0,0,0,1.385,1.385h8.309a1.389,1.389,0,0,0,1.385-1.385V4.385A1.389,1.389,0,0,0,26.543,3H18.234A1.389,1.389,0,0,0,16.849,4.385Z" transform="translate(-3 -3)" fill="none" stroke="#5d6d75" stroke-width="1.5"/>
  </g>
</svg>
