<svg xmlns="http://www.w3.org/2000/svg" width="462.085" height="370.338" viewBox="0 0 462.085 370.338">
  <g id="Group_20665" data-name="Group 20665" transform="translate(-839.548 -6.775)">
    <g id="Group_20664" data-name="Group 20664" transform="translate(1038.269 6.775)">
      <path id="Path_14966" data-name="Path 14966" d="M233.193,78.633a.619.619,0,0,0-.012-.062,2.536,2.536,0,0,0-1.444-1.071,5.448,5.448,0,0,0-2.113-.336c-.859.038-2.487.608-2.437,1.711.059,1.316,2.218,1.456,3.152,1.413a8.778,8.778,0,0,0,2.385-.368,15.3,15.3,0,0,1-.654,4.569,4.5,4.5,0,0,1-1.268,1.757,3.132,3.132,0,0,1-2.673.563c-.51-.1-.3.654.055.76a3.858,3.858,0,0,0,4.494-2.008c1.119-1.964.706-4.235,1.181-6.36C233.938,78.844,233.521,78.588,233.193,78.633Zm-4.229.687c-.166-.035-.6-.109-.694-.272-.075-.126.048-.236.15-.342a2.954,2.954,0,0,1,2.855-.448,3.923,3.923,0,0,1,.788.248c.137.06.269.129.4.2.053.03.108.057.161.089l.1.064a5.238,5.238,0,0,1-2.215.512A5.341,5.341,0,0,1,228.964,79.32Z" transform="translate(-227.185 -47.143)" fill="#0cb497"/>
      <g id="Group_705" data-name="Group 705" transform="translate(33.345 9.557)">
        <path id="Path_179" data-name="Path 179" d="M402.66,112.69c3.988,0,8.047,0,13.039,2.606,3.148,1.644,5.111,4.249,6.752,7.4a17.033,17.033,0,0,1,1.855,8.282c-.145,2.714-.155,4.611-1.238,7.1" transform="translate(-402.66 -112.69)" fill="#263238"/>
      </g>
      <g id="Group_812" data-name="Group 812" transform="translate(12.06 10.121)">
        <g id="Group_811" data-name="Group 811">
          <g id="Group_810" data-name="Group 810">
            <g id="Group_726" data-name="Group 726">
              <g id="Group_725" data-name="Group 725">
                <g id="Group_724" data-name="Group 724">
                  <g id="Group_714" data-name="Group 714">
                    <g id="Group_713" data-name="Group 713">
                      <g id="Group_712" data-name="Group 712">
                        <g id="Group_711" data-name="Group 711">
                          <g id="Group_710" data-name="Group 710">
                            <g id="Group_709" data-name="Group 709">
                              <g id="Group_708" data-name="Group 708">
                                <g id="Group_707" data-name="Group 707">
                                  <g id="Group_706" data-name="Group 706">
                                    <path id="Path_180" data-name="Path 180" d="M384.09,113.755A21.159,21.159,0,0,1,406.7,133.748c.514,9.831.966,20.464.857,25.818-.234,11.492-11.743,13.187-11.743,13.187s.254,3.408.537,7.636a15.141,15.141,0,0,1-14.529,16.146h0a15.137,15.137,0,0,1-15.7-14.568l-1.71-46.318a21.165,21.165,0,0,1,19.676-21.894Z" transform="translate(-364.4 -113.703)" fill="#e5bfb1"/>
                                  </g>
                                </g>
                              </g>
                            </g>
                          </g>
                        </g>
                      </g>
                    </g>
                  </g>
                  <g id="Group_723" data-name="Group 723" transform="translate(16.672 54.508)">
                    <g id="Group_722" data-name="Group 722">
                      <g id="Group_721" data-name="Group 721">
                        <g id="Group_720" data-name="Group 720">
                          <g id="Group_719" data-name="Group 719">
                            <g id="Group_718" data-name="Group 718">
                              <g id="Group_717" data-name="Group 717">
                                <g id="Group_716" data-name="Group 716">
                                  <g id="Group_715" data-name="Group 715">
                                    <path id="Path_181" data-name="Path 181" d="M409.111,216.225a27.344,27.344,0,0,1-14.744-4.543s3.476,8.362,14.952,7.418Z" transform="translate(-394.367 -211.682)" fill="#e5bfb1"/>
                                  </g>
                                </g>
                              </g>
                            </g>
                          </g>
                        </g>
                      </g>
                    </g>
                  </g>
                </g>
              </g>
            </g>
            <g id="Group_809" data-name="Group 809" transform="translate(14.573 15.974)">
              <g id="Group_808" data-name="Group 808">
                <g id="Group_789" data-name="Group 789" transform="translate(1.068 6.391)">
                  <g id="Group_788" data-name="Group 788">
                    <g id="Group_787" data-name="Group 787">
                      <g id="Group_746" data-name="Group 746" transform="translate(17.364)">
                        <g id="Group_735" data-name="Group 735" transform="translate(1.618 2.578)">
                          <g id="Group_734" data-name="Group 734">
                            <g id="Group_733" data-name="Group 733">
                              <g id="Group_732" data-name="Group 732">
                                <g id="Group_731" data-name="Group 731">
                                  <g id="Group_730" data-name="Group 730">
                                    <g id="Group_729" data-name="Group 729">
                                      <g id="Group_728" data-name="Group 728">
                                        <g id="Group_727" data-name="Group 727">
                                          <path id="Path_182" data-name="Path 182" d="M429.912,160.035a1.642,1.642,0,0,1-1.6,1.643,1.57,1.57,0,0,1-1.68-1.493,1.642,1.642,0,0,1,1.594-1.645A1.571,1.571,0,0,1,429.912,160.035Z" transform="translate(-426.636 -158.539)" fill="#263238"/>
                                        </g>
                                      </g>
                                    </g>
                                  </g>
                                </g>
                              </g>
                            </g>
                          </g>
                        </g>
                        <g id="Group_745" data-name="Group 745">
                          <g id="Group_744" data-name="Group 744">
                            <g id="Group_743" data-name="Group 743">
                              <g id="Group_742" data-name="Group 742">
                                <g id="Group_741" data-name="Group 741">
                                  <g id="Group_740" data-name="Group 740">
                                    <g id="Group_739" data-name="Group 739">
                                      <g id="Group_738" data-name="Group 738">
                                        <g id="Group_737" data-name="Group 737">
                                          <g id="Group_736" data-name="Group 736">
                                            <path id="Path_183" data-name="Path 183" d="M430.213,155.656c-.2.212-1.441-.718-3.208-.728-1.764-.035-3.067.863-3.257.646-.093-.1.117-.481.685-.888a4.5,4.5,0,0,1,2.61-.782,4.324,4.324,0,0,1,2.551.846C430.134,155.172,430.314,155.56,430.213,155.656Z" transform="translate(-423.727 -153.904)" fill="#263238"/>
                                          </g>
                                        </g>
                                      </g>
                                    </g>
                                  </g>
                                </g>
                              </g>
                            </g>
                          </g>
                        </g>
                      </g>
                      <g id="Group_766" data-name="Group 766" transform="translate(0 0.191)">
                        <g id="Group_755" data-name="Group 755" transform="translate(1.661 2.387)">
                          <g id="Group_754" data-name="Group 754">
                            <g id="Group_753" data-name="Group 753">
                              <g id="Group_752" data-name="Group 752">
                                <g id="Group_751" data-name="Group 751">
                                  <g id="Group_750" data-name="Group 750">
                                    <g id="Group_749" data-name="Group 749">
                                      <g id="Group_748" data-name="Group 748">
                                        <g id="Group_747" data-name="Group 747">
                                          <path id="Path_184" data-name="Path 184" d="M398.778,160.036a1.641,1.641,0,0,1-1.6,1.643,1.569,1.569,0,0,1-1.68-1.493,1.642,1.642,0,0,1,1.594-1.644A1.571,1.571,0,0,1,398.778,160.036Z" transform="translate(-395.502 -158.54)" fill="#263238"/>
                                        </g>
                                      </g>
                                    </g>
                                  </g>
                                </g>
                              </g>
                            </g>
                          </g>
                        </g>
                        <g id="Group_765" data-name="Group 765">
                          <g id="Group_764" data-name="Group 764">
                            <g id="Group_763" data-name="Group 763">
                              <g id="Group_762" data-name="Group 762">
                                <g id="Group_761" data-name="Group 761">
                                  <g id="Group_760" data-name="Group 760">
                                    <g id="Group_759" data-name="Group 759">
                                      <g id="Group_758" data-name="Group 758">
                                        <g id="Group_757" data-name="Group 757">
                                          <g id="Group_756" data-name="Group 756">
                                            <path id="Path_185" data-name="Path 185" d="M399,156c-.205.212-1.443-.718-3.208-.727-1.764-.034-3.068.864-3.257.646-.093-.1.115-.481.685-.887a4.494,4.494,0,0,1,2.609-.782,4.324,4.324,0,0,1,2.551.846C398.921,155.515,399.1,155.9,399,156Z" transform="translate(-392.516 -154.248)" fill="#263238"/>
                                          </g>
                                        </g>
                                      </g>
                                    </g>
                                  </g>
                                </g>
                              </g>
                            </g>
                          </g>
                        </g>
                      </g>
                      <g id="Group_776" data-name="Group 776" transform="translate(12.082 0.368)">
                        <g id="Group_775" data-name="Group 775">
                          <g id="Group_774" data-name="Group 774">
                            <g id="Group_773" data-name="Group 773">
                              <g id="Group_772" data-name="Group 772">
                                <g id="Group_771" data-name="Group 771">
                                  <g id="Group_770" data-name="Group 770">
                                    <g id="Group_769" data-name="Group 769">
                                      <g id="Group_768" data-name="Group 768">
                                        <g id="Group_767" data-name="Group 767">
                                          <path id="Path_186" data-name="Path 186" d="M414.943,169.289a11.673,11.673,0,0,1,2.873-.495c.451-.043.879-.129.957-.436a2.293,2.293,0,0,0-.29-1.34q-.623-1.641-1.306-3.444c-1.814-4.9-3.122-8.936-2.924-9.007s1.829,3.846,3.642,8.75q.654,1.814,1.25,3.465a2.608,2.608,0,0,1,.22,1.771,1.133,1.133,0,0,1-.747.654,3.073,3.073,0,0,1-.767.1A11.519,11.519,0,0,1,414.943,169.289Z" transform="translate(-414.233 -154.566)" fill="#263238"/>
                                        </g>
                                      </g>
                                    </g>
                                  </g>
                                </g>
                              </g>
                            </g>
                          </g>
                        </g>
                      </g>
                    </g>
                  </g>
                </g>
                <g id="Group_798" data-name="Group 798" transform="translate(0 0.064)">
                  <g id="Group_797" data-name="Group 797">
                    <g id="Group_796" data-name="Group 796">
                      <g id="Group_795" data-name="Group 795">
                        <g id="Group_794" data-name="Group 794">
                          <g id="Group_793" data-name="Group 793">
                            <g id="Group_792" data-name="Group 792">
                              <g id="Group_791" data-name="Group 791">
                                <g id="Group_790" data-name="Group 790">
                                  <path id="Path_188" data-name="Path 188" d="M398.662,143.883c-.178.478-1.94.237-4.013.47-2.08.191-3.755.784-4.027.352-.121-.207.174-.656.853-1.116a7.027,7.027,0,0,1,6.125-.626C398.359,143.275,398.739,143.655,398.662,143.883Z" transform="translate(-390.596 -142.531)" fill="#263238"/>
                                </g>
                              </g>
                            </g>
                          </g>
                        </g>
                      </g>
                    </g>
                  </g>
                </g>
                <g id="Group_807" data-name="Group 807" transform="translate(18.66)">
                  <g id="Group_806" data-name="Group 806">
                    <g id="Group_805" data-name="Group 805">
                      <g id="Group_804" data-name="Group 804">
                        <g id="Group_803" data-name="Group 803">
                          <g id="Group_802" data-name="Group 802">
                            <g id="Group_801" data-name="Group 801">
                              <g id="Group_800" data-name="Group 800">
                                <g id="Group_799" data-name="Group 799">
                                  <path id="Path_189" data-name="Path 189" d="M430.147,144.271c-.314.4-1.527-.027-2.99-.058-1.461-.083-2.7.248-2.985-.174-.123-.2.075-.6.619-.98a4.329,4.329,0,0,1,4.815.187C430.119,143.662,430.286,144.077,430.147,144.271Z" transform="translate(-424.136 -142.417)" fill="#263238"/>
                                </g>
                              </g>
                            </g>
                          </g>
                        </g>
                      </g>
                    </g>
                  </g>
                </g>
              </g>
            </g>
          </g>
        </g>
      </g>
      <g id="Group_826" data-name="Group 826" transform="translate(45.334 13.346)">
        <path id="Path_194" data-name="Path 194" d="M425.286,122.567c.113-.6-.083-.931.253-1.175.383-.278,1.107.453,1.372.744.085.092.355-.27.46-.34a2,2,0,0,0,.2-.763c-.049-.415-.7-.527-1.01-.811a3.088,3.088,0,0,0-1.083-.615,1.032,1.032,0,0,0-1.038.061,1,1,0,0,0-.231.777,2.156,2.156,0,0,0,.157.809,1.142,1.142,0,0,0,.553.594" transform="translate(-424.209 -119.501)" fill="#263238"/>
      </g>
      <path id="Path_14967" data-name="Path 14967" d="M710.9,1350.741c-.505,3.143,6.671,29.962,6.671,29.962v-13.555l-.96-12.195,1.314-5.782S711.4,1347.6,710.9,1350.741Z" transform="translate(-704.187 -1318.148)" fill="#37474f"/>
      <g id="Group_20647" data-name="Group 20647" transform="translate(6.239 37.298)">
        <g id="Group_693" data-name="Group 693">
          <g id="Group_692" data-name="Group 692">
            <g id="Group_691" data-name="Group 691">
              <g id="Group_690" data-name="Group 690">
                <g id="Group_689" data-name="Group 689">
                  <g id="Group_688" data-name="Group 688">
                    <g id="Group_687" data-name="Group 687">
                      <g id="Group_686" data-name="Group 686">
                        <g id="Group_685" data-name="Group 685">
                          <path id="Path_177" data-name="Path 177" d="M361.446,162.85c-.2-.08-7.959-2.116-7.489,5.732s8.251,5.757,8.251,5.531S361.446,162.85,361.446,162.85Z" transform="translate(-353.936 -162.554)" fill="#b78876"/>
                        </g>
                      </g>
                    </g>
                  </g>
                </g>
              </g>
            </g>
          </g>
        </g>
        <g id="Group_703" data-name="Group 703" transform="translate(2.009 2.606)">
          <g id="Group_702" data-name="Group 702">
            <g id="Group_701" data-name="Group 701">
              <g id="Group_700" data-name="Group 700">
                <g id="Group_699" data-name="Group 699">
                  <g id="Group_698" data-name="Group 698">
                    <g id="Group_697" data-name="Group 697">
                      <g id="Group_696" data-name="Group 696">
                        <g id="Group_695" data-name="Group 695">
                          <g id="Group_694" data-name="Group 694">
                            <path id="Path_178" data-name="Path 178" d="M361.236,173.362c-.036-.023-.131.1-.356.224a1.368,1.368,0,0,1-1.02.082c-.847-.255-1.624-1.529-1.747-2.941a4.517,4.517,0,0,1,.265-1.98,1.581,1.581,0,0,1,.965-1.11.7.7,0,0,1,.829.326c.118.214.078.373.12.384.023.018.161-.141.078-.462a.872.872,0,0,0-.338-.473,1.036,1.036,0,0,0-.768-.155,1.924,1.924,0,0,0-1.355,1.3,4.649,4.649,0,0,0-.343,2.216c.145,1.578,1.043,3.01,2.2,3.27a1.466,1.466,0,0,0,1.238-.283C361.233,173.553,361.264,173.375,361.236,173.362Z" transform="translate(-357.548 -167.24)" fill="#aa6550"/>
                          </g>
                        </g>
                      </g>
                    </g>
                  </g>
                </g>
              </g>
            </g>
          </g>
        </g>
      </g>
      <path id="Path_14963" data-name="Path 14963" d="M278.641,69.525s-2.465-3.962-13.728-2.9a42.692,42.692,0,0,0-17.5,5.873,25.063,25.063,0,0,0-8.191,8.125,5.9,5.9,0,0,0-1.384-.425,6.107,6.107,0,0,0-5.7,1.9c-.021.021-.032.043-.054.065-2.059-3.759-3.576-7.569-2.727-13.135,1.2-7.843,8.975-13.256,17.617-16.929,10.211-4.34,21.4-3.229,25.892,1S278.521,69.122,278.641,69.525Z" transform="translate(-225.389 -49.335)" fill="#0cb497"/>
      <g id="Group_20648" data-name="Group 20648" transform="translate(35.609 49.935)">
        <path id="Path_92" data-name="Path 92" d="M256.694,88.644l6.775,1.714A3.433,3.433,0,0,1,259.293,93,3.657,3.657,0,0,1,256.694,88.644Z" transform="translate(-256.602 -88.644)" fill="#263238"/>
      </g>
    </g>
    <g id="Group_3" data-name="Group 3" transform="translate(847.819 240.314)">
      <g id="Group_1" data-name="Group 1">
        <path id="Path_1" data-name="Path 1" d="M103.869,325.1c.847-9.648-4.376-30.244-13.287-43.65S66.735,257.507,55.219,260.35C44.492,263,44.42,276.758,56.26,286.921s29.833,23.2,34.015,39.341l9.972,20.226Z" transform="translate(-47.273 -259.884)" fill="#2d80c4"/>
        <path id="Path_2" data-name="Path 2" d="M103.869,325.1c.847-9.648-4.376-30.244-13.287-43.65S66.735,257.507,55.219,260.35C44.492,263,44.42,276.758,56.26,286.921s29.833,23.2,34.015,39.341l9.972,20.226Z" transform="translate(-47.273 -259.884)" fill="#2d80c4" opacity="0.1"/>
      </g>
      <g id="Group_2" data-name="Group 2" transform="translate(11.874 6.589)">
        <path id="Path_3" data-name="Path 3" d="M102.358,337.779a.707.707,0,0,1-.584-.623c-3.569-33.5-27.858-62.609-43.285-69.924a.709.709,0,0,1-.337-.942.7.7,0,0,1,.942-.336c15.721,7.454,40.464,37.044,44.086,71.053a.706.706,0,0,1-.627.778A.675.675,0,0,1,102.358,337.779Z" transform="translate(-58.083 -265.882)" fill="#fff"/>
      </g>
    </g>
    <g id="Group_6" data-name="Group 6" transform="translate(850.64 273.15)">
      <g id="Group_4" data-name="Group 4">
        <path id="Path_4" data-name="Path 4" d="M96.406,355.248c-1.073-5.56-6.911-15.091-16.975-23.424-11.133-9.219-25.8-14.3-28.7-20.965-3.482-8.012,3.6-14.67,15.64-12.091s31.987,21.07,33.213,46.379Z" transform="translate(-49.842 -298.205)" fill="#70b226"/>
      </g>
      <g id="Group_5" data-name="Group 5" transform="translate(10.164 6.576)">
        <path id="Path_5" data-name="Path 5" d="M98.351,349.175a.708.708,0,0,1-.567-.519c-7.621-29.1-28.277-40.894-38.134-43.064a.708.708,0,0,1-.539-.842.7.7,0,0,1,.844-.539c10.9,2.4,31.419,14.384,39.2,44.088a.708.708,0,0,1-.505.863A.685.685,0,0,1,98.351,349.175Z" transform="translate(-59.095 -304.192)" fill="#fff"/>
      </g>
    </g>
    <g id="Group_9" data-name="Group 9" transform="translate(1226.148 220.937)">
      <g id="Group_7" data-name="Group 7">
        <path id="Path_6" data-name="Path 6" d="M391.806,338.45c-.891-10.137,4.936-42.753,14.3-56.84s26.289-28.3,38.389-25.312c11.27,2.782,11.346,17.241-1.094,27.92s-31.347,24.38-35.74,41.335L396.7,354.218Z" transform="translate(-391.716 -255.897)" fill="#2d80c4"/>
        <path id="Path_7" data-name="Path 7" d="M391.806,338.45c-.891-10.137,4.936-42.753,14.3-56.84s26.289-28.3,38.389-25.312c11.27,2.782,11.346,17.241-1.094,27.92s-31.347,24.38-35.74,41.335L396.7,354.218Z" transform="translate(-391.716 -255.897)" fill="#2d80c4" opacity="0.1"/>
      </g>
      <g id="Group_8" data-name="Group 8" transform="translate(1.264 6.834)">
        <path id="Path_8" data-name="Path 8" d="M393.735,337.662a.745.745,0,0,0,.615-.655c3.748-35.2,29.271-65.784,45.479-73.471a.743.743,0,1,0-.637-1.343c-16.517,7.831-42.516,38.923-46.321,74.657a.745.745,0,0,0,.863.812Z" transform="translate(-392.867 -262.119)" fill="#fff"/>
      </g>
    </g>
    <g id="Group_12" data-name="Group 12" transform="translate(1231.516 268.774)">
      <g id="Group_10" data-name="Group 10" transform="translate(0.532)">
        <path id="Path_9" data-name="Path 9" d="M400.425,356.2c1.128-5.841,5.828-15.765,15.721-25.285,12.114-11.657,31.453-17.342,34.5-24.349,3.659-8.417-3.231-14.7-15.767-11.493-16.855,4.313-36.5,23.922-37.79,50.513Z" transform="translate(-397.088 -294.221)" fill="#70b226"/>
      </g>
      <g id="Group_11" data-name="Group 11" transform="translate(0 6.114)">
        <path id="Path_10" data-name="Path 10" d="M397.472,349.891a.744.744,0,0,0,.6-.546c8.008-30.577,33.935-45.807,44.292-48.087a.745.745,0,0,0,.566-.886.732.732,0,0,0-.885-.566c-11.453,2.521-37.237,17.953-45.411,49.162a.745.745,0,0,0,.844.923Z" transform="translate(-396.604 -299.787)" fill="#fff"/>
      </g>
    </g>
    <g id="Group_13" data-name="Group 13" transform="translate(1214.768 71.207)">
      <path id="Path_11" data-name="Path 11" d="M406.343,156.091c-6.784-6.985-18.042-23.277-18.042-23.277l-6.94-24.04c-.169.068,3.539.08,4.656.012,7.5.5,9.71,1.139,14.373,6.245,3.7,4.055,17.408,25.355,22.321,31.845l13.468-18.6c3.123-4.729,2.617-10.014,4.24-13.871s4.243-5.561,6.341-9.05,2.6-5.76,4.322-3.984-.265,6.591-.524,7.686-2.884,4.354,1.5,2.661,11.174-9.726,12.926-11.365,2.669.9,2.275,2.905,1.49,6.543.807,9.866c-.724,3.527-1.246,5.137-4.644,8.562-3.167,3.191-10.917,7.1-13.948,11.283s-9.5,17.2-13.453,25.035c-5.024,9.964-10.544,15.629-17.041,10.056C414,163.778,408.858,158.681,406.343,156.091Z" transform="translate(-381.356 -99.825)" fill="#ffbda7"/>
      <path id="Path_12" data-name="Path 12" d="M388.324,107.83c5.739.525,8.831,1.838,14.52,9.344s19.047,27.3,19.047,27.3L433.385,130.4s7.924,6.032,12.128,13.082c0,0-11.131,18.7-15.584,23.39s-7.915,5.084-13.976,0-23.623-24.38-23.623-24.38Z" transform="translate(-380.67 -99.037)" fill="#f0f0f0"/>
      <path id="Path_13" data-name="Path 13" d="M419.323,141.367c-2.605,3.774-4.292,9.907-3.832,12.973,0,0-3.623-4.177,2.481-14.968Z" transform="translate(-378.103 -95.934)" fill="#e0e0e0"/>
    </g>
    <g id="Group_14" data-name="Group 14" transform="translate(1167.253 157.456)">
      <path id="Path_14" data-name="Path 14" d="M342.181,364.969h13.061l2.6-23.119H342.181Z" transform="translate(-337.695 -178.217)" fill="#ffbda7"/>
      <path id="Path_15" data-name="Path 15" d="M381.643,343.383l13.917.46-.248-23.94-15.739-.3Z" transform="translate(-334.016 -180.406)" fill="#ffbda7"/>
      <path id="Path_16" data-name="Path 16" d="M342.723,193.779c-.254,12.679-2.938,96.565-2.938,96.565a185.911,185.911,0,0,0-1.664,20.668c-.348,16.758,3.162,56.541,3.162,56.541.777,3.619,14.288,5.087,16.076,1.821,0,0,7.38-57.708,9.472-74.294,1.827-14.476,7.851-61.809,7.851-61.809l4.665,46.475a144.9,144.9,0,0,0,.366,16.289c.545,7.672,4.4,52.94,4.4,52.94.067,2.818,14.106,5.154,16.478.993,0,0,4.442-66.081,4.576-73.119.155-8.026-.965-83.975-.965-83.975Z" transform="translate(-338.097 -192.873)" fill="#37474f"/>
      <path id="Path_17" data-name="Path 17" d="M356.271,357.032l.223-1.974c.723-.015,1.036.814,1.331,2.549a37.818,37.818,0,0,0,3.462,10.641c2.222,4.566,3.513,6.457,7.884,11.956,1.038,1.3,3.378,3.378,4.195,4.832s1.1,5.5-.283,6.42c-5.1,3.4-12.842,3.494-18.32,1.889a10.507,10.507,0,0,1-7.952-8.936c-.894-4.989-1.355-8.07-3.9-11.844-.933-1.385-2.439-2.5-3.071-4.041-1.134-2.776-.224-5.9.5-8.663.626-2.388,1.3-5.013,2.12-4.79,0,.291,0,1.473,0,1.473.98,1.086,4.414,2.165,7.473,2.282C351.913,358.9,356.288,358.539,356.271,357.032Z" transform="translate(-337.978 -176.917)" fill="#263238"/>
      <path id="Path_18" data-name="Path 18" d="M395.689,338.336c.343.231,1.134,1.14,2.532,2.435a50.744,50.744,0,0,0,4.507,3.482,83.861,83.861,0,0,0,10.021,6.29c4.143,2.27,7.874,3.659,12.824,5.893a4.023,4.023,0,0,1,1.383.917,2.78,2.78,0,0,1,.6,1.231,5.138,5.138,0,0,1-2.072,4.948,13.618,13.618,0,0,1-5.17,2.2,26.6,26.6,0,0,1-12.9.387,36.473,36.473,0,0,1-10.363-4.79,23.137,23.137,0,0,0-8.867-3.8c-2.775-.405-6.2-.269-8.606-1.93-2.678-1.845-1.607-5.788-.85-9.176.826-3.7,1.014-9.34,2.7-9.219l.129,1.478c.148,1.6,4.013,2.33,7.008,2.333,2.479,0,7.168-.646,7.15-1.813C395.711,339.2,395.689,338.348,395.689,338.336Z" transform="translate(-334.185 -178.674)" fill="#263238"/>
      <path id="Path_19" data-name="Path 19" d="M372.843,214.307a42.36,42.36,0,0,0,14.253-9.158s-2.273,6.644-11.6,12.11l.614,57.882-4.7-43.077Z" transform="translate(-334.82 -191.665)" fill="#263238"/>
    </g>
    <g id="Group_15" data-name="Group 15" transform="translate(1167.269 77.231)">
      <path id="Path_20" data-name="Path 20" d="M363.767,106.568c-2.366.57-9.884,2.594-15.987,4.745a17.027,17.027,0,0,0-7.7,5.894c-4.43,6.473-.434,20.843,2.827,47.929-.25,17.491-.752,39.232-.752,39.232,8.041,5.857,45.553,9.838,62.476-2.52,0,0,.56-65.635-.557-74.169-2.141-16.335-8.536-20.7-21.741-21.468Z" transform="translate(-338.111 -106.211)" fill="#27debf"/>
      <path id="Path_21" data-name="Path 21" d="M363.767,106.568c-2.366.57-9.884,2.594-15.987,4.745a17.027,17.027,0,0,0-7.7,5.894c-4.43,6.473-.434,20.843,2.827,47.929-.25,17.491-.752,39.232-.752,39.232,8.041,5.857,45.553,9.838,62.476-2.52,0,0,.56-65.635-.557-74.169-2.141-16.335-8.536-20.7-21.741-21.468Z" transform="translate(-338.111 -106.211)" fill="#fff" opacity="0.6"/>
    </g>
    <g id="Group_16" data-name="Group 16" transform="translate(1204.632 86.66)">
      <path id="Path_22" data-name="Path 22" d="M383.057,124.059c1.191,4.085,8.2,32.793,7.219,42.9a62.719,62.719,0,0,1-4.175,15.092c-3.044,7.2-5.07.756-6.768-3.494a53.8,53.8,0,0,1-2.852-12.273c-.562-5.424,1.62-21.915.782-41.239A4.159,4.159,0,0,1,383.057,124.059Z" transform="translate(-371.709 -114.015)" fill="#27debf"/>
      <path id="Path_23" data-name="Path 23" d="M383.057,124.059c1.191,4.085,8.2,32.793,7.219,42.9a62.719,62.719,0,0,1-4.175,15.092c-3.044,7.2-5.07.756-6.768-3.494a53.8,53.8,0,0,1-2.852-12.273c-.562-5.424,1.62-21.915.782-41.239A4.159,4.159,0,0,1,383.057,124.059Z" transform="translate(-371.709 -114.015)" opacity="0.2"/>
      <path id="Path_24" data-name="Path 24" d="M383.736,115.676c2.783,2.375-.26,9.215-.26,9.215a7.88,7.88,0,0,0-5.8.99s-5.542-2.369-5.552-6.471c-.009-3.734,3.967-2.541,6.791-3.029C381.911,115.863,383.408,113.675,383.736,115.676Z" transform="translate(-372.128 -114.848)" fill="#27debf"/>
      <path id="Path_25" data-name="Path 25" d="M383.736,115.676c2.783,2.375-.26,9.215-.26,9.215a7.88,7.88,0,0,0-5.8.99s-5.542-2.369-5.552-6.471c-.009-3.734,3.967-2.541,6.791-3.029C381.911,115.863,383.408,113.675,383.736,115.676Z" transform="translate(-372.128 -114.848)" opacity="0.2"/>
      <path id="Path_26" data-name="Path 26" d="M383.475,124.745c-.454-1.6-2.636-1.454-4.377-2a4.732,4.732,0,0,1-2.348-2.018c-.9-1.552-.013-4.123,1.258-4.385v0c-2.7.19-5.888-.421-5.881,2.927.01,4.1,5.552,6.471,5.552,6.471A7.874,7.874,0,0,1,383.475,124.745Z" transform="translate(-372.128 -114.701)" opacity="0.2"/>
    </g>
    <g id="Group_22" data-name="Group 22" transform="translate(1179.514 24.956)">
      <g id="Group_17" data-name="Group 17">
        <path id="Path_27" data-name="Path 27" d="M365.073,73.533a17.094,17.094,0,1,0,16.681-17.5A17.095,17.095,0,0,0,365.073,73.533Z" transform="translate(-347.704 -53.497)" fill="#455a64"/>
        <path id="Path_28" data-name="Path 28" d="M354,83.3s3.08,12.943,4.241,15.054a5.9,5.9,0,0,0,3.471,2.665l-.412-9.148Z" transform="translate(-348.793 -50.815)" fill="#455a64"/>
        <path id="Path_29" data-name="Path 29" d="M357.329,66.256a6.415,6.415,0,0,0-5.263,1.994c-2.223,2.386-.777,9.65,2.233,16.728l5.231.475Z" transform="translate(-349.09 -52.494)" fill="#455a64"/>
        <path id="Path_30" data-name="Path 30" d="M361.263,86.184c-1.031.65-2.571-1.324-3.893-2.643s-5.578-3.062-7.572,1.414c-2.032,4.563,2.1,10.427,5.445,11.388,5.755,1.657,6.525-2.029,6.525-2.029l.98,23.33h0c4.071,4.97,13.664,5.25,18.421,4.287,3.8-.77,3.859-3.461.112-7.6l-.176-6.683s5.2.661,7.711.211c4.186-.749,6.766-4.124,7.916-8.706,1.757-7,2.189-14.805.429-27.595C395,55.845,376.564,56.135,366.822,62.6S361.263,86.184,361.263,86.184Z" transform="translate(-349.26 -53.261)" fill="#ffbda7"/>
        <path id="Path_31" data-name="Path 31" d="M360.65,88.409c-.526.022-2.606-3.249-3.935-4.4-1.844-1.6.128-16.52.128-16.52a7.212,7.212,0,0,1,1.05-8.054c2.406-2.779,5.774-6.183,17.022-5.125,8.016.753,16.777,3.039,23.724-.582a11.969,11.969,0,0,1-3.864,12.81s-2.505,1.7-9.178,2.676-17.12.252-18.551.091c-1.946-.22-2.315,1.672-3.239,6.835C363,80.668,362.416,88.332,360.65,88.409Z" transform="translate(-348.604 -53.724)" fill="#455a64"/>
        <path id="Path_32" data-name="Path 32" d="M357.369,67.782l-6.406-3.245a3.487,3.487,0,0,1,4.75-1.7A3.772,3.772,0,0,1,357.369,67.782Z" transform="translate(-349.092 -52.864)" fill="#455a64"/>
        <path id="Path_33" data-name="Path 33" d="M379.81,103.934s-9.424-1.666-12.744-3.33a10.806,10.806,0,0,1-4.64-4.376,14.781,14.781,0,0,0,2.7,5.228c2.47,3.007,14.746,5.162,14.746,5.162Z" transform="translate(-347.964 -49.543)" fill="#f0997a"/>
      </g>
      <g id="Group_18" data-name="Group 18" transform="translate(23.126 22.192)">
        <path id="Path_34" data-name="Path 34" d="M375.711,81.8a1.881,1.881,0,1,1-1.777-2.052A1.911,1.911,0,0,1,375.711,81.8Z" transform="translate(-370.153 -73.356)" fill="#263238"/>
        <path id="Path_35" data-name="Path 35" d="M374.66,75.291,370.529,77.3a2.41,2.41,0,0,1,1.1-3.149A2.241,2.241,0,0,1,374.66,75.291Z" transform="translate(-370.314 -73.928)" fill="#263238"/>
        <path id="Path_36" data-name="Path 36" d="M376.372,93.132l5.863,1.6a2.985,2.985,0,0,1-3.676,2.233A3.182,3.182,0,0,1,376.372,93.132Z" transform="translate(-369.728 -72.039)" fill="#f0997a"/>
        <path id="Path_37" data-name="Path 37" d="M392.375,77.036,388,75.536a2.223,2.223,0,0,1,2.864-1.485A2.431,2.431,0,0,1,392.375,77.036Z" transform="translate(-368.575 -73.928)" fill="#263238"/>
        <path id="Path_38" data-name="Path 38" d="M390.365,81.287a1.882,1.882,0,1,1-2.053-1.778A1.912,1.912,0,0,1,390.365,81.287Z" transform="translate(-368.711 -73.38)" fill="#263238"/>
        <path id="Path_39" data-name="Path 39" d="M380.773,80.157l.678,11.3,5.892-2.044Z" transform="translate(-369.286 -73.315)" fill="#f0997a"/>
      </g>
      <g id="Group_21" data-name="Group 21" transform="translate(9.051 53.405)">
        <g id="Group_20" data-name="Group 20">
          <g id="Group_19" data-name="Group 19">
            <path id="Path_40" data-name="Path 40" d="M380.358,117.611c-5.222-1.1-17.549-5.926-18.744-11.955l-.153-3.311c-2.024-.02-2.956,2.26-3.948,5.5-.42,8.523,8.57,16.305,17.6,18.4a15.64,15.64,0,0,1,1.991-5.6A7.617,7.617,0,0,1,380.358,117.611Z" transform="translate(-357.5 -102.346)" fill="#27debf"/>
            <path id="Path_41" data-name="Path 41" d="M378.273,104.041a8.889,8.889,0,0,1,3.643,2.18c6.759,7,2.9,16.174,2.9,16.174a6.756,6.756,0,0,0-2.466-3.84,6.436,6.436,0,0,0-4.039-1.11c1.659-1.771,1.005-4.864.112-7.6Z" transform="translate(-355.457 -102.179)" fill="#27debf"/>
          </g>
        </g>
      </g>
      <path id="Path_42" data-name="Path 42" d="M400.293,76.511c-.291-.035-.6-.067-.912-.1-2.943-.275-6.8-.346-9.154.292-2.947.8-4.01,1.694-5.625,1.707-1.728,0-2.787-.887-5.872-1.672-2.46-.621-6.592-.526-9.763-.231-.34.032-.671.066-.986.1L354,80.388a5.427,5.427,0,0,1,3.145,1.653l10.184-2.784c.145.194.29.368.386.5a1.892,1.892,0,0,1,.3.679c.291,1.169.417,3.41,1.02,4.655a5.566,5.566,0,0,0,1.188,1.671,4.81,4.81,0,0,0,.621.492c.117.076.235.148.36.221a5.8,5.8,0,0,0,1.08.462c.06.02.121.038.182.054.092.025.19.053.289.077s.2.044.3.065a7.864,7.864,0,0,0,.964.133c.133.014.271.023.413.031.167.005.34.011.52.01,4.013,0,5.753-1.712,6.815-3.482s.9-4.263,2.749-4.263c.062,0,.12,0,.176.009a1.411,1.411,0,0,1,.163.023c1.356.282,1.1,2.569,1.906,4.216A6.376,6.376,0,0,0,388,86.6c.1.1.2.188.3.277.053.047.107.089.163.131s.111.085.17.125.1.072.156.107c.09.058.13.083.168.107s.089.052.135.077c.029.018.062.035.092.053a6.083,6.083,0,0,0,1.577.569c.048.01.1.021.147.03a9.339,9.339,0,0,0,1.948.17c3.758-.026,5.126-2,5.789-3.251a27.96,27.96,0,0,0,1.319-4.664,1.441,1.441,0,0,1,.365-.613A3.2,3.2,0,0,0,401.247,78,1.359,1.359,0,0,0,400.293,76.511Zm-19.5,6.65a5.293,5.293,0,0,1-1.484,2.464h0a6.211,6.211,0,0,1-4.428,1.417,4.906,4.906,0,0,1-4.14-1.782c-.045-.059-.089-.119-.126-.176s-.081-.116-.116-.175-.068-.109-.1-.165-.055-.1-.079-.147a1.2,1.2,0,0,1-.06-.118,1.156,1.156,0,0,1-.052-.105c-.027-.059-.054-.12-.079-.177v0a5.08,5.08,0,0,1-.191-.516l-.005-.013c-.033-.105-.064-.209-.091-.309-.049-.18-.088-.349-.12-.5-.007-.033-.013-.066-.02-.1l-.021-.091c-.264-1.233-.54-3.658.169-4.207.685-.528,2.556-1.121,5.535-.869.1,0,.208.014.317.026.456.047.911.114,1.358.205.177.035.353.075.525.115a12.888,12.888,0,0,1,1.315.382c.141.049.275.1.4.15.154.059.3.123.435.188.029.013.057.025.087.041.055.025.108.052.157.08a2.578,2.578,0,0,1,.871.644C381.416,80.186,381.179,81.786,380.789,83.16Zm17.449-.577a5.537,5.537,0,0,1-2.969,3.96,5.861,5.861,0,0,1-2.24.442c-2.368.046-3.675-.83-4.4-1.835l-.012-.019c-.029-.038-.055-.076-.078-.112s-.059-.09-.086-.132c-.014-.021-.029-.045-.042-.068-.038-.065-.075-.132-.108-.2s-.076-.15-.111-.227c-.019-.036-.035-.074-.05-.111-.01-.021-.016-.042-.025-.063s-.025-.063-.036-.093-.02-.049-.027-.071a5.562,5.562,0,0,1-.253-.919c-.256-1.372-.359-2.97.232-3.729s2.826-1.6,4.957-1.84q.736-.082,1.376-.1l.163,0h.176c.163,0,.323.005.476.011.057,0,.115,0,.172.009.077.006.153.009.224.016.128.008.253.022.372.036.244.029.473.065.684.109l.161.035a.163.163,0,0,1,.042.01c.035.008.072.015.11.026.054.011.111.029.163.043.067.018.134.038.2.057.115.037.222.075.321.116a.59.59,0,0,1,.056.022,2.631,2.631,0,0,1,.723.415C399.029,78.919,398.575,81.349,398.238,82.584Z" transform="translate(-348.793 -51.512)" fill="#37474f"/>
    </g>
    <path id="Path_43" data-name="Path 43" d="M363.719,105.693s3.973,19.955,5.694,33.455,1.392,51.6.475,75.785c-.669,17.616-3.3,50.177-3.3,50.177s-4.346.877-14.844-.857c-8.936-1.475-13.461-4.127-15.378-5.272,0,0,1.659-49.509,2.912-66.792,1.155-15.943,1.116-24.71,1.116-24.71l-3.759-36.385s.281-22.864,7.382-23.83C351.381,106.262,363.719,105.693,363.719,105.693Z" transform="translate(828.986 -30.281)" fill="#fafafa"/>
    <path id="Path_44" data-name="Path 44" d="M355.125,138.45c.036-.839-.078-2.642-.224-4.923-.708-11.152.311-27.279,4.077-28.091l.332,1.537c-2.755.594-3.184,21.036-2.839,26.454.148,2.329.265,4.168.225,5.091Z" transform="translate(830.789 -27.945)" fill="#27debf"/>
    <g id="Group_23" data-name="Group 23" transform="translate(1145.683 77.467)">
      <path id="Path_45" data-name="Path 45" d="M344.252,215.667c-1.819-3.094-1.912-5.391-4.646-8.15a9.2,9.2,0,0,1-2.474-4.121c-.84-2.469-.794-5.054-.992-7.753l-15.869.732a100.194,100.194,0,0,0,1.95,17.567c3.017,13.26,5.927,18.833,11.624,20.119,9.091,2.053,11.333-1.862,8.135-8.428a32.7,32.7,0,0,1-2.914-8.654,16.322,16.322,0,0,0,3.392,3.028c2.15,1.251,3.807.259,4.316-.474C347.17,218.961,345.675,218.09,344.252,215.667Z" transform="translate(-318.28 -98.414)" fill="#ffbda7"/>
      <path id="Path_46" data-name="Path 46" d="M348.662,107.123s-8.438-.126-13.166,4.138-7.245,15.666-10.319,27.094-5.777,22.532-6.589,30.48c-.678,6.643,1.541,41.585,1.541,41.585s9.658,2.033,17.081-2.034l.313-38.839,12.264-38.916A36.569,36.569,0,0,0,348.662,107.123Z" transform="translate(-318.459 -107.123)" fill="#f0f0f0"/>
    </g>
    <path id="Path_47" data-name="Path 47" d="M361.582,99.773c-1.108-.225-2.12.356-3.022,1.889s-2.891,4.77-2.891,4.77-1.023,10.72,0,13.382c.886,2.308,6.79,13.215,6.79,13.215s-.389,10.6-.479,13.754,6.029,16.366,6.717,22.5c0,0,.3-24.924-.605-31.849-1.583-12.049-3.562-26.468-6.228-31.4Z" transform="translate(830.84 -28.594)" fill="#ebebeb"/>
    <g id="Group_29" data-name="Group 29" transform="translate(1179.21 107.285)">
      <g id="Group_24" data-name="Group 24" transform="translate(0.282 0.275)">
        <path id="Path_48" data-name="Path 48" d="M353.405,172.56l-.133,0,.042-1.1a7.124,7.124,0,0,0,3.608-1.342,13.445,13.445,0,0,1-3-2.718c-1.773-2.291-5.653-18.663-4.456-22.477,1-3.2,4.144-10.247,6.942-10.367h.072c2.79,0,6.463,6.667,7.723,9.742,1.518,3.7-.96,20.342-2.532,22.773a13.414,13.414,0,0,1-2.758,2.965,6.916,6.916,0,0,0,3.709,1.03l.134,1.093a8.544,8.544,0,0,1-4.81-1.4A8.78,8.78,0,0,1,353.405,172.56Zm3.082-36.907h-.035c-1.642.069-4.591,5.306-5.937,9.6-1.1,3.5,2.632,19.348,4.277,21.473a12.752,12.752,0,0,0,3.1,2.708,12.791,12.791,0,0,0,2.856-2.961c1.46-2.256,3.832-18.358,2.437-21.758C361.491,140.581,358.143,135.654,356.487,135.654Z" transform="translate(-349.24 -134.553)" fill="#455a64"/>
      </g>
      <g id="Group_25" data-name="Group 25" transform="translate(12.114 35.714)">
        <path id="Path_49" data-name="Path 49" d="M363.243,168.366a1.616,1.616,0,1,1-1.683-1.547A1.615,1.615,0,0,1,363.243,168.366Z" transform="translate(-360.013 -166.818)" fill="#263238"/>
      </g>
      <g id="Group_26" data-name="Group 26" transform="translate(2.718 36.114)">
        <path id="Path_50" data-name="Path 50" d="M354.689,168.73a1.617,1.617,0,1,1-1.684-1.547A1.617,1.617,0,0,1,354.689,168.73Z" transform="translate(-351.458 -167.182)" fill="#263238"/>
      </g>
      <g id="Group_28" data-name="Group 28">
        <g id="Group_27" data-name="Group 27">
          <path id="Path_51" data-name="Path 51" d="M364.5,151.533l-.927-.063a.364.364,0,0,1-.334-.387c.188-3.073.086-5.338-.286-6.243-1.627-3.97-5-8.95-6.464-8.887s-4.4,5.311-5.688,9.4c-.292.935-.2,3.2.246,6.244a.366.366,0,0,1-.3.414l-.918.141a.368.368,0,0,1-.414-.312c-.505-3.419-.568-5.766-.188-6.981.689-2.2,3.928-10.421,7.192-10.56s7.19,7.782,8.061,9.911c.483,1.175.621,3.52.406,6.973A.37.37,0,0,1,364.5,151.533Z" transform="translate(-348.983 -134.302)" fill="#27debf"/>
        </g>
      </g>
    </g>
    <g id="Group_30" data-name="Group 30" transform="translate(1211.36 72.993)">
      <path id="Path_52" data-name="Path 52" d="M378.253,103.244c1.45.125,2.706,2.268,6.053,3.259,6.236,1.846,11.9,4.683,13.654,8.517,2.9,6.34,3.362,7.593,4.406,35.865s1.385,108.792,1.385,108.792a21.83,21.83,0,0,1-9.537,1.932s.248-88.863-.348-108.848-3.621-29.729-7.949-36.315c-1.214-5.518-5.1-9.165-7.628-11.846Z" transform="translate(-378.253 -103.244)" fill="#fafafa"/>
      <path id="Path_53" data-name="Path 53" d="M385.916,116.447c4.328,6.586,7.353,16.331,7.949,36.315.071,2.378.133,5.713.189,9.726h0s3.564-18.108,2.931-21.952-4.8-11.82-4.8-11.82c.544-6.609-1-14.124-3.531-18.652a12.407,12.407,0,0,0-2.21-2.879,19.831,19.831,0,0,0-2.692-1.83,11.859,11.859,0,0,0-5.5-2.112l.035,1.356C380.813,107.282,384.7,110.928,385.916,116.447Z" transform="translate(-378.253 -103.244)" fill="#ebebeb"/>
    </g>
    <path id="Path_54" data-name="Path 54" d="M266.236,106.956c8.294-.126,12.757,3.6,18.845,13.154,5.191,8.149,17.218,27.663,20.6,33.544,3.818,6.635,4.35,9.331,1.359,14.3-2.845,4.722-29.814,35.874-29.814,35.874l-6.959-12.349L287.6,162.506,267.284,132.49Z" transform="translate(822.087 -28.837)" fill="#b16668"/>
    <path id="Path_55" data-name="Path 55" d="M265.752,106.629c6-.317,9.727.926,13.344,4.43s22.233,34.735,22.233,34.735-2.68,6.407-18.391,14.771l-15.358-20.911Z" transform="translate(822.039 -28.173)" fill="#27debf"/>
    <path id="Path_56" data-name="Path 56" d="M265.752,106.629c6-.317,9.727.926,13.344,4.43s22.233,34.735,22.233,34.735-2.68,6.407-18.391,14.771l-15.358-20.911Z" transform="translate(822.039 -28.173)" fill="#263238" opacity="0.2"/>
    <g id="Group_49" data-name="Group 49" transform="translate(1030.884 128.919)">
      <g id="Group_39" data-name="Group 39" transform="translate(48.258 139.585)">
        <g id="Group_31" data-name="Group 31">
          <path id="Path_57" data-name="Path 57" d="M277.027,344.635c-.167-4.667,3.228-50.66,3.228-50.66L257.877,310.2c4.592,27.41,5.571,33.874,5.652,38.359h0a3.885,3.885,0,0,0-.121,1.148c.019,5.325,6.029,8.2,10.717,11.747a87.4,87.4,0,0,0,12.68,8.277c3.406,1.711,10.323,1.867,11.179-.324-5.7-4.356-14-10.876-18.538-15.851C277.279,351.183,277.194,349.3,277.027,344.635Z" transform="translate(-257.877 -293.975)" fill="#ffa8a7"/>
        </g>
        <g id="Group_38" data-name="Group 38" transform="translate(2.755 53.283)">
          <path id="Path_58" data-name="Path 58" d="M307.463,368.952c.292,0,.734,3.224-.856,4.594-1.833,1.582-7.217,4.178-14.331,3.258s-10.965-3.122-13.811-5.505-6.835-5.742-10.053-6.452c-2.988-.66-6.234-2.014-7.19-2.938s-.824-5.032-.824-5.032Z" transform="translate(-260.385 -341.07)" fill="#455a64"/>
          <path id="Path_59" data-name="Path 59" d="M263.236,342.486a1.14,1.14,0,0,0-1.076.961c-.22,1.131-.456,4.423-.927,6.282a33.208,33.208,0,0,0-.7,9.979c.392,2.1,5.265,3.568,8.377,4.754A39.626,39.626,0,0,1,279,370.833c3.342,2.756,10.373,5.624,15.009,5.591,5.485-.04,11.661-1.816,13.077-4.358,1.751-3.147.379-4.97-7.755-8.74-1.539-.714-6.947-3.916-8.79-5.076-4.987-3.139-9.926-7.51-12.221-13.064a3.1,3.1,0,0,0-1.169-1.7,2.6,2.6,0,0,0-1.582-.143,13.474,13.474,0,0,0-3.915,1.181c-1.092.52-2.639,1.126-2.616,2.523a4.644,4.644,0,0,0,.306,1.421c.1.286.174.664-.076.834s-.549-.022-.761-.212a21.23,21.23,0,0,1-2.192-2.632,7.957,7.957,0,0,0-1.287-1.313,13.806,13.806,0,0,1-1.393-.9C263.141,343.752,263.259,343.142,263.236,342.486Z" transform="translate(-260.385 -342.486)" fill="#27debf"/>
          <path id="Path_60" data-name="Path 60" d="M263.236,342.486a1.14,1.14,0,0,0-1.076.961c-.22,1.131-.456,4.423-.927,6.282a33.208,33.208,0,0,0-.7,9.979c.392,2.1,5.265,3.568,8.377,4.754A39.626,39.626,0,0,1,279,370.833c3.342,2.756,10.373,5.624,15.009,5.591,5.485-.04,11.661-1.816,13.077-4.358,1.751-3.147.379-4.97-7.755-8.74-1.539-.714-6.947-3.916-8.79-5.076-4.987-3.139-9.926-7.51-12.221-13.064a3.1,3.1,0,0,0-1.169-1.7,2.6,2.6,0,0,0-1.582-.143,13.474,13.474,0,0,0-3.915,1.181c-1.092.52-2.639,1.126-2.616,2.523a4.644,4.644,0,0,0,.306,1.421c.1.286.174.664-.076.834s-.549-.022-.761-.212a21.23,21.23,0,0,1-2.192-2.632,7.957,7.957,0,0,0-1.287-1.313,13.806,13.806,0,0,1-1.393-.9C263.141,343.752,263.259,343.142,263.236,342.486Z" transform="translate(-260.385 -342.486)" fill="#fff" opacity="0.9"/>
          <path id="Path_61" data-name="Path 61" d="M277.728,369.041c-1.419-1.17-2.925-2.3-4.436-3.312v-.008s9.565,5.816,13.43,3.177c2.49-1.7,1.306-3.766,1.246-4.426s6.083-3.488,8.5-3.775h0c.673.372,1.239.672,1.593.837,8.134,3.77,9.505,5.593,7.755,8.74-1.416,2.543-5.89,4.526-12.98,4.526C288.2,374.8,281.071,371.8,277.728,369.041Z" transform="translate(-259.116 -340.694)" fill="#27debf" opacity="0.8"/>
          <path id="Path_62" data-name="Path 62" d="M277.728,369.041c-1.419-1.17-2.925-2.3-4.436-3.312v-.008s9.565,5.816,13.43,3.177c2.49-1.7,1.306-3.766,1.246-4.426s6.083-3.488,8.5-3.775h0c.673.372,1.239.672,1.593.837,8.134,3.77,9.505,5.593,7.755,8.74-1.416,2.543-5.89,4.526-12.98,4.526C288.2,374.8,281.071,371.8,277.728,369.041Z" transform="translate(-259.116 -340.694)" fill="#fff" opacity="0.8"/>
          <path id="Path_63" data-name="Path 63" d="M288.441,364.338c5.057,2.023,2.9,2.968,1.483,3.17s-9.928-4.77-15.12-8.878c-5.415-4.286-8.83-8.969-10.841-10.542-.75-.588-1.558-1.308-2.276-1.981.134-1.114.242-2.128.344-2.659a1.141,1.141,0,0,1,1.077-.961c.023.656-.1,1.266.4,1.758a13.809,13.809,0,0,0,1.393.9,7.954,7.954,0,0,1,1.287,1.313,21.233,21.233,0,0,0,2.192,2.632C272.8,354.7,283.383,362.315,288.441,364.338Z" transform="translate(-260.257 -342.486)" fill="#27debf"/>
          <g id="Group_37" data-name="Group 37" transform="translate(11.889 8.54)">
            <g id="Group_32" data-name="Group 32" transform="translate(16.918 11.219)">
              <path id="Path_64" data-name="Path 64" d="M287.113,364.995a.5.5,0,0,1-.388-.817,12.036,12.036,0,0,1,9.265-3.654.5.5,0,0,1,.445.551.492.492,0,0,1-.551.444,11.147,11.147,0,0,0-8.384,3.293A.5.5,0,0,1,287.113,364.995Z" transform="translate(-286.612 -360.476)" fill="#fafafa"/>
            </g>
            <g id="Group_33" data-name="Group 33" transform="translate(12.507 8.506)">
              <path id="Path_65" data-name="Path 65" d="M283.1,362.523a.5.5,0,0,1-.388-.818,12.048,12.048,0,0,1,9.265-3.652.5.5,0,0,1-.107,1,11.163,11.163,0,0,0-8.384,3.291A.5.5,0,0,1,283.1,362.523Z" transform="translate(-282.596 -358.005)" fill="#fafafa"/>
            </g>
            <g id="Group_34" data-name="Group 34" transform="translate(8.094 5.933)">
              <path id="Path_66" data-name="Path 66" d="M279.079,360.181a.493.493,0,0,1-.316-.113.5.5,0,0,1-.07-.7,12.022,12.022,0,0,1,9.265-3.652.5.5,0,0,1-.108,1A11.142,11.142,0,0,0,279.467,360,.5.5,0,0,1,279.079,360.181Z" transform="translate(-278.578 -355.663)" fill="#fafafa"/>
            </g>
            <g id="Group_35" data-name="Group 35" transform="translate(4.005 2.997)">
              <path id="Path_67" data-name="Path 67" d="M275.357,357.507a.5.5,0,0,1-.388-.817,12.059,12.059,0,0,1,9.266-3.652.5.5,0,1,1-.108,1,11.167,11.167,0,0,0-8.384,3.291A.5.5,0,0,1,275.357,357.507Z" transform="translate(-274.856 -352.99)" fill="#fafafa"/>
            </g>
            <g id="Group_36" data-name="Group 36">
              <path id="Path_68" data-name="Path 68" d="M271.71,354.838a.5.5,0,0,1-.392-.812c1.963-2.478,6.4-4.109,10.118-3.7a.5.5,0,1,1-.108,1c-3.349-.365-7.484,1.132-9.226,3.329A.5.5,0,0,1,271.71,354.838Z" transform="translate(-271.209 -350.261)" fill="#fafafa"/>
            </g>
          </g>
        </g>
      </g>
      <g id="Group_48" data-name="Group 48" transform="translate(1.245 155.553)">
        <g id="Group_40" data-name="Group 40" transform="translate(0.386)">
          <path id="Path_69" data-name="Path 69" d="M238.008,308.923l-22.582-.41c.335,15.075,2.731,31.807,3.123,45.951.074,2.662-.067,20.688.937,26.166,1.509,8.23,11.278,7.12,11.8,2.193s-.629-25.969-.6-28.139c-.086-9.07,4.166-24.382,6.395-40.665C237.188,313.218,237.9,309.7,238.008,308.923Z" transform="translate(-215.426 -308.513)" fill="#ffa8a7"/>
        </g>
        <g id="Group_47" data-name="Group 47" transform="translate(0 44.222)">
          <path id="Path_70" data-name="Path 70" d="M235,379.556c.2,4.836-.223,8.1-1.645,11.091s-4.552,4.2-7.9,3.7-7.739-2.285-9.091-6.339-1.448-6.917-1.157-11.451Z" transform="translate(-215.075 -346.04)" fill="#455a64"/>
          <path id="Path_71" data-name="Path 71" d="M218.514,348.774c-1.333.241-1.08,6.736-1.2,13.279-.134,7.012-1.914,10.086-2.085,15.842-.194,6.576.438,9.442,3.107,13.138s11.107,6.736,14.51.717c2.773-4.909,2.4-10,1.45-16.455a165.117,165.117,0,0,1-1.957-16.468c-.227-4.886-.366-9.631-1.587-10.053-.018.723-.014,1.637-.038,2.347-.02.546.111,3.191-.639,3.292a10.141,10.141,0,0,1-.2-1.83,2.178,2.178,0,0,0-.525-1.531,2.536,2.536,0,0,0-1.559-.515,38.507,38.507,0,0,0-4.056-.216c-.674.008-1.349.043-2.02.118a5.38,5.38,0,0,0-1.677.414,1.2,1.2,0,0,0-.661.733,2.14,2.14,0,0,0,0,.748,5.392,5.392,0,0,1-.034,1.35c-.03.2-.138.444-.335.416-.16-.022-.242-.21-.258-.37-.085-.783-.042-1.363-.1-2.277-.025-.423-.014-1-.052-1.428S218.528,349.191,218.514,348.774Z" transform="translate(-215.063 -348.774)" fill="#27debf"/>
          <path id="Path_72" data-name="Path 72" d="M218.514,348.774c-1.333.241-1.08,6.736-1.2,13.279-.134,7.012-1.914,10.086-2.085,15.842-.194,6.576.438,9.442,3.107,13.138s11.107,6.736,14.51.717c2.773-4.909,2.4-10,1.45-16.455a165.117,165.117,0,0,1-1.957-16.468c-.227-4.886-.366-9.631-1.587-10.053-.018.723-.014,1.637-.038,2.347-.02.546.111,3.191-.639,3.292a10.141,10.141,0,0,1-.2-1.83,2.178,2.178,0,0,0-.525-1.531,2.536,2.536,0,0,0-1.559-.515,38.507,38.507,0,0,0-4.056-.216c-.674.008-1.349.043-2.02.118a5.38,5.38,0,0,0-1.677.414,1.2,1.2,0,0,0-.661.733,2.14,2.14,0,0,0,0,.748,5.392,5.392,0,0,1-.034,1.35c-.03.2-.138.444-.335.416-.16-.022-.242-.21-.258-.37-.085-.783-.042-1.363-.1-2.277-.025-.423-.014-1-.052-1.428S218.528,349.191,218.514,348.774Z" transform="translate(-215.063 -348.774)" fill="#fff" opacity="0.9"/>
          <path id="Path_73" data-name="Path 73" d="M215.345,373.594c-.036.949-.205,7.227,1.595,8.175,1.95,1.026,2.463-3.949,2.463-3.949s4.154-1.743,10.666.359c-.22,1.038,1.076,4.257,2.718,3.385s1.586-8.045,1.585-8.138c.885,6.187,1.164,11.133-1.529,15.9-3.4,6.019-11.842,2.98-14.51-.717s-3.3-6.562-3.107-13.138C215.246,374.812,215.288,374.191,215.345,373.594Z" transform="translate(-215.063 -346.349)" fill="#27debf"/>
          <path id="Path_74" data-name="Path 74" d="M215.345,373.594c-.036.949-.205,7.227,1.595,8.175,1.95,1.026,2.463-3.949,2.463-3.949s4.154-1.743,10.666.359c-.22,1.038,1.076,4.257,2.718,3.385s1.586-8.045,1.585-8.138c.885,6.187,1.164,11.133-1.529,15.9-3.4,6.019-11.842,2.98-14.51-.717s-3.3-6.562-3.107-13.138C215.246,374.812,215.288,374.191,215.345,373.594Z" transform="translate(-215.063 -346.349)" fill="#fff" opacity="0.8"/>
          <path id="Path_75" data-name="Path 75" d="M219.753,380.613c.209,2.349-2.188,1.79-2.622-1.514s.59-11.347,0-17.046c.124-6.543-.13-13.039,1.2-13.279,0,.08.012.159.016.239l.154,3.3c.009.481.011.908.065,1.414.448,4.789.7,14.105.732,18.523A77.267,77.267,0,0,0,219.753,380.613Z" transform="translate(-214.883 -348.774)" fill="#27debf"/>
          <path id="Path_76" data-name="Path 76" d="M228.072,380.612a76.981,76.981,0,0,0,.451-8.361c.027-4.385.28-13.591.722-18.411a12.225,12.225,0,0,0,.2-2.72c.023-.663.022-1.5.036-2.195,0-.049.009-.1.01-.148.883.321,1.2,2.912,1.388,6.175.021,1.895-.043,4.246-.183,7.1-.591,5.7.445,13.788.011,17.092S227.863,382.962,228.072,380.612Z" transform="translate(-213.797 -348.774)" fill="#27debf"/>
          <g id="Group_46" data-name="Group 46" transform="translate(3.009 9.819)">
            <g id="Group_41" data-name="Group 41" transform="translate(0.829 20.227)">
              <path id="Path_77" data-name="Path 77" d="M229.887,378.091a.508.508,0,0,1-.187-.036,15.944,15.944,0,0,0-10.454-.032.5.5,0,1,1-.351-.936,16.679,16.679,0,0,1,11.179.04.5.5,0,0,1-.187.964Z" transform="translate(-218.569 -376.13)" fill="#fafafa"/>
            </g>
            <g id="Group_42" data-name="Group 42" transform="translate(0.22 15.022)">
              <path id="Path_78" data-name="Path 78" d="M230.551,373.351a.518.518,0,0,1-.17-.029,19.709,19.709,0,0,0-11.7-.031.5.5,0,0,1-.322-.949,20.432,20.432,0,0,1,12.367.036.5.5,0,0,1-.17.972Z" transform="translate(-218.015 -371.39)" fill="#fafafa"/>
            </g>
            <g id="Group_43" data-name="Group 43" transform="translate(0.22 9.875)">
              <path id="Path_79" data-name="Path 79" d="M218.516,368.881a.5.5,0,0,1-.209-.956c5.817-2.646,12.073-.182,12.339-.076a.5.5,0,0,1,.277.651.508.508,0,0,1-.65.277c-.06-.023-6.139-2.41-11.549.059A.494.494,0,0,1,218.516,368.881Z" transform="translate(-218.014 -366.705)" fill="#fafafa"/>
            </g>
            <g id="Group_44" data-name="Group 44" transform="translate(0.107 5.088)">
              <path id="Path_80" data-name="Path 80" d="M218.412,364.714a.5.5,0,0,1-.215-.952,15.524,15.524,0,0,1,12.581-.138.5.5,0,0,1-.432.9,14.775,14.775,0,0,0-11.717.137A.493.493,0,0,1,218.412,364.714Z" transform="translate(-217.912 -362.347)" fill="#fafafa"/>
            </g>
            <g id="Group_45" data-name="Group 45">
              <path id="Path_81" data-name="Path 81" d="M218.315,360a.5.5,0,0,1-.222-.949c5.973-2.948,12.412-.131,12.683-.008a.5.5,0,0,1-.411.913c-.063-.027-6.283-2.746-11.828-.008A.5.5,0,0,1,218.315,360Z" transform="translate(-217.814 -357.714)" fill="#ebebeb"/>
            </g>
          </g>
        </g>
      </g>
      <path id="Path_82" data-name="Path 82" d="M226.885,166.892c-2.984,6.319-6.464,18.481-7.09,26.6-2.571,33.37-1.184,81.275-1.184,81.275-.3,3.487-2.505,11.4-3.99,26.752-1.755,18.134.446,79.589.446,79.589s10.85,6.465,19.289-.892c0,0,9.811-84.476,12.084-102.506,1.986-15.735,7.536-49.78,7.536-49.78l6.494,50.346s-.6,14.158-.182,23.31c.489,10.644,3.463,64.87,3.463,64.87s14.9,5.043,21.566-2.118c0,0,1.583-75.218,1.808-88.027.443-25.125.009-70.906-4.075-97.25Z" transform="translate(-213.942 -166.892)" fill="#27debf"/>
      <path id="Path_83" data-name="Path 83" d="M226.885,166.892c-2.984,6.319-6.464,18.481-7.09,26.6-2.571,33.37-1.184,81.275-1.184,81.275-.3,3.487-2.505,11.4-3.99,26.752-1.755,18.134.446,79.589.446,79.589s10.85,6.465,19.289-.892c0,0,9.811-84.476,12.084-102.506,1.986-15.735,7.536-49.78,7.536-49.78l6.494,50.346s-.6,14.158-.182,23.31c.489,10.644,3.463,64.87,3.463,64.87s14.9,5.043,21.566-2.118c0,0,1.583-75.218,1.808-88.027.443-25.125.009-70.906-4.075-97.25Z" transform="translate(-213.942 -166.892)" fill="#263238" opacity="0.67"/>
      <path id="Path_84" data-name="Path 84" d="M250.39,224.576l2.33-16.018s13.529-1.809,19.658-7.57a22.207,22.207,0,0,1-15.942,10.074l-2.392,14.485,2.063,43.342Z" transform="translate(-210.356 -163.538)" fill="#263238" opacity="0.2"/>
    </g>
    <g id="Group_51" data-name="Group 51" transform="translate(1034.698 76.679)">
      <g id="Group_50" data-name="Group 50">
        <path id="Path_85" data-name="Path 85" d="M281.69,148.8c-.592,6.583-.736,19.454-.736,19.454,2.381,16.83,4.294,33.259,4.294,33.259-25.129,13.409-63.063,2.556-67.834-2.971,2.357-16.478,7.567-26.736,10.957-36.01L222.08,134.49s10.843-9.015,9.86-27.306l14.849-1.54,14.175.4,10.069.715A85.04,85.04,0,0,1,284.2,123.172C289.08,131.056,289.264,140.866,281.69,148.8Z" transform="translate(-217.414 -105.644)" fill="#60c5bf"/>
      </g>
    </g>
    <path id="Path_86" data-name="Path 86" d="M262.578,144.519s-6.558,5.8-14.614,3.509a13.507,13.507,0,0,1-9.645-9.1s-.259,9.057,9.872,11.49C257.969,152.767,262.578,144.519,262.578,144.519Z" transform="translate(819.34 -26.387)" opacity="0.1"/>
    <g id="Group_63" data-name="Group 63" transform="translate(997.763 77.991)">
      <path id="Path_99" data-name="Path 99" d="M235.456,203.312a38.953,38.953,0,0,1-8.217-7.317,25.564,25.564,0,0,0,5.994-.043c2.717-.574,3.245-1.716,3.117-2.705-.1-.77-1.99-.524-4.984-1.464a54.1,54.1,0,0,0-10.509-2.476,7.271,7.271,0,0,1-4.288-2.91c-.947-1.172-6.521-10.948-11.443-21.4l22.747-28.148c5.675-6.357,12.46-17.763,5.651-29.451-15.626,3.294-15.507,2.91-46.766,49.178-5.4,7.99-4.954,11.752,14.279,35.561a151.838,151.838,0,0,0,12.484,13.726c11.1,10.362,19.13,11.109,23.749,8.3C243.582,210.335,241.529,207.312,235.456,203.312Z" transform="translate(-183.787 -107.011)" fill="#b16668"/>
      <path id="Path_100" data-name="Path 100" d="M234.424,107.046c-8.559.391-14.854,1.6-20.885,8.953-6.444,7.853-21.371,29.43-21.371,29.43s4,12.33,20.083,16.468L232.5,135.891S239.907,121.4,234.424,107.046Z" transform="translate(-182.962 -107.046)" fill="#27debf"/>
      <path id="Path_101" data-name="Path 101" d="M234.424,107.046c-8.559.391-14.854,1.6-20.885,8.953-6.444,7.853-21.371,29.43-21.371,29.43s4,12.33,20.083,16.468L232.5,135.891S239.907,121.4,234.424,107.046Z" transform="translate(-182.962 -107.046)" fill="#263238" opacity="0.2"/>
    </g>
    <path id="Path_102" data-name="Path 102" d="M121.445,115.7c-7.677.214-9.856,3.291-14.486,9.9s-20.371,31.657-20.371,31.657l-22.3,8.565,2.936,13.013S86.1,175.075,95.748,173.1a8.261,8.261,0,0,0,6.066-4.121c1.236-1.887,13.636-21.393,13.636-21.393Z" transform="translate(802.219 -28.027)" fill="#e6e6e6"/>
    <path id="Path_103" data-name="Path 103" d="M124.274,115.932c-7.262-1.817-10.466,2.239-12.884,6.674-3.871,7.1-6.195,21.593-6.522,48.086-.21,17.037-6.139,37.628-7.194,53.789-1.586,24.284-2.355,43.185-2.355,43.185a309.37,309.37,0,0,1,43.323-2.55Z" transform="translate(805.272 -30.028)" fill="#e0e0e0"/>
    <g id="Group_66" data-name="Group 66" transform="translate(881.788 135.829)">
      <path id="Path_104" data-name="Path 104" d="M167.61,357.3s4.352-29.81,2.534-47.286c-1.56-15-3.763-21.273-4.077-24.682,0,0-2.521-35.2-1.835-65.015.325-14.142-.4-29.721-10.453-46.389l-.36-.659c-.9,5.466-9.315,9-16.829,9.84q-10.856,1.208-27.027-4.295c-2.4,14.142-5.128,41.08-7.909,70.447-1.36,14.357-1.126,26.434-1.363,35.66-.321,12.523.817,61.582.817,61.582l-.016,2.066c-.076,2.292-.632,3.877-2.229,7.507a44.472,44.472,0,0,1-8.26,12.7c-1.079,1.089-8.5,7.156-9.494,8.469-3.216,3.51,3.133,5.759,7.918,5.281,5.05-.5,12.922-2.155,15.238-5.143,1.543-1.99,2.889-9.1,4.474-11.117,5.346-6.8,7.546-9.731,7.658-11.958.2-4.023-1.13-5.662-1.549-7.951.569-4.735,10.186-29.513,10.823-43.343.3-6.589-1.156-18.277-1.156-18.277l8.453-48.063c1.874,13.516,5.438,43.96,6.732,53.653,1.78,13.347,8.363,35.933,12.525,53.662,1.564,6.659,2.336,9.636,2.716,13.977,0,.016.1,1.548.1,1.563.042,1.969.2,22.979.833,27.431,1.318,9.3,9.575,8.407,11.138.973,1.33-6.324.583-26.069.633-28.486Z" transform="translate(-78 -173.175)" fill="#ffa8a7"/>
      <path id="Path_105" data-name="Path 105" d="M161.347,340.7c2.318.116.494,9.039.9,14.831.436,6.209,2.314,10.8,2.726,15.889.471,5.819-.126,8.229-2.363,12.926-1.74,3.653-10.033,8.463-12.939,3.06-2.943-5.468-3.375-11.479-2.829-17.239.565-5.955,1.069-10.3,1.34-14.839.239-4-2.529-13.492.494-13.967l.1,1.563c1.007,2.191,11.248,4.021,12.6-.082Z" transform="translate(-71.467 -156.702)" fill="#37474f"/>
      <g id="Group_65" data-name="Group 65" transform="translate(0 173.039)">
        <g id="Group_64" data-name="Group 64">
          <path id="Path_106" data-name="Path 106" d="M114.406,342.426c.613,2.915-.386,10.818-.386,10.818s-1.342,2.693-5.864,4.366l-1.637-11.094Z" transform="translate(-75.414 -329.572)" fill="#263238"/>
          <path id="Path_107" data-name="Path 107" d="M109.067,357.357,99.339,353.8l-2.079-8.807,10.864,5.961Z" transform="translate(-76.325 -329.32)"/>
          <path id="Path_108" data-name="Path 108" d="M101.56,332.955l.018-2.067c-1.356.605-4.655,11.267-8.875,18.514-3.853,6.618-11.172,10.134-13.6,12.988-3.256,3.818,2.65,9.076,12.465,7.315,4.872-.874,12.3-3.725,14.394-6.924s2.966-9.171,4.669-11.518,5.654-4.981,6.564-7.686a14.9,14.9,0,0,0,.23-7.543c-.681-2.511-1.248-5.54-2.106-5.3l-.12,1.889c-.7,1.308-3.1,2.779-8.034,2.881C104.819,335.557,102.561,335.123,101.56,332.955Z" transform="translate(-78.2 -330.723)" fill="#37474f"/>
        </g>
      </g>
      <path id="Path_109" data-name="Path 109" d="M125.471,308.32a102.383,102.383,0,0,0-.819-22.666l7.094-47.27s4.835,45,5.646,51.971,13.774,82.206,13.774,82.206c6.632,3.931,15.148,2.681,20.684-.256-.024-30.431-.944-60.912-2.052-69.34a143.638,143.638,0,0,0-3.943-17.051s-.7-44.385-.666-61.23-1.232-28.122-4.437-35.7a108.011,108.011,0,0,0-8.831-15.8s-2.466,8.31-21.974,8.331-21.663-4.924-21.663-4.924-5.709,19.951-7.617,50.092c-1.537,24.29-1.887,35.336-2.347,46.166-.392,9.224-.639,19.883-.849,38.521-.159,14.061-2.15,44.993-2.15,44.993s9.523,5,25.251-.7C120.57,355.663,124.5,320.456,125.471,308.32Z" transform="translate(-76.516 -173.183)" fill="#455a64"/>
      <path id="Path_110" data-name="Path 110" d="M130.166,235.751,126.3,207.17a24.473,24.473,0,0,1-14.926-7.222s2.173,6.922,11.339,10.809l5.171,25.077-3.776,40.255Z" transform="translate(-74.936 -170.55)" fill="#37474f"/>
    </g>
    <path id="Path_111" data-name="Path 111" d="M140.249,117.7l9.19.975c6.1,1.492,8.85,4.18,9.477,9.586.292,2.516,1.813,9.221-.321,17.615-1.933,7.605-7.078,26.225-7.078,26.225s6.666,16.752,9.825,25.265c-21.679,14.137-48.432,8.551-57.42,0,.76-8.094,3.625-15.621,4.268-22.839,0,0-.468-11.266-1.363-16.155-6.856-7.485-5.982-14.645-2.905-20.417,5.683-10.659,14.258-20.025,17.027-20.012Z" transform="translate(805.891 -28.424)" fill="#27debf"/>
    <path id="Path_112" data-name="Path 112" d="M140.249,117.7l9.19.975c6.1,1.492,8.85,4.18,9.477,9.586.292,2.516,1.813,9.221-.321,17.615-1.933,7.605-7.078,26.225-7.078,26.225s6.666,16.752,9.825,25.265c-21.679,14.137-48.432,8.551-57.42,0,.76-8.094,3.625-15.621,4.268-22.839,0,0-.468-11.266-1.363-16.155-6.856-7.485-5.982-14.645-2.905-20.417,5.683-10.659,14.258-20.025,17.027-20.012Z" transform="translate(805.891 -28.424)" fill="#fff" opacity="0.6"/>
    <path id="Path_113" data-name="Path 113" d="M122.981,111.824c-2.717,0-3.033.456-5.374,3.59-1.395,1.867-10.2,16.4-10.2,16.4s7.012-9.221,12.293-12.014a11.6,11.6,0,0,1,3.271-1.3Z" transform="translate(806.461 -27.551)" fill="#ebebeb"/>
    <path id="Path_114" data-name="Path 114" d="M138.122,117.7s-7.572,19.9-9.293,33.4,4.194,54.315,5.112,78.5c.669,17.616,2.333,42.971,2.333,42.971a62.487,62.487,0,0,0,16.112-.5c8.9-1.681,11.658-3.137,16.742-6.46,0,0-4.4-44.226-6.563-61.419-2.04-16.186-10.738-32.135-10.738-32.135l10.455-43.289s-.515-7.3-7.385-9.34C148.357,117.493,138.122,117.7,138.122,117.7Z" transform="translate(808.538 -30.114)" fill="#fafafa"/>
    <path id="Path_115" data-name="Path 115" d="M149.89,157.366s-1.417-5.152-3.38-13.946-1.65-13.9-.972-17.741L156.9,142.313l-6.695,28.954,0,.011a110.22,110.22,0,0,1,10.01,27.646h0c-6.845-19.373-14.345-25.18-14.345-25.18Z" transform="translate(810.161 -27.918)" fill="#f5f5f5"/>
    <g id="Group_67" data-name="Group 67" transform="translate(946.675 87.907)">
      <path id="Path_116" data-name="Path 116" d="M140.114,142.375c-.036-.839.078-2.642.224-4.923.708-11.152,1.035-21.228-2.732-22.039l-.332,1.537c2.755.593,1.839,14.984,1.494,20.4-.148,2.329-.265,4.168-.224,5.091Z" transform="translate(-137.275 -115.413)" fill="#27debf"/>
    </g>
    <path id="Path_117" data-name="Path 117" d="M158.86,223.879c1.455-2.771,1.441-4.776,3.707-7.292a8.015,8.015,0,0,0,1.983-3.694,26.7,26.7,0,0,0,.54-6.793l13.019.192c.108,4.329.689,10.548-.132,15.165-2.075,11.675-4.377,16.649-9.286,18.008-7.833,2.167-9.948-1.149-7.436-7a28.516,28.516,0,0,0,2.177-7.66,14.231,14.231,0,0,1-2.828,2.78,2.784,2.784,0,0,1-3.778-.234C156.457,226.87,157.721,226.049,158.86,223.879Z" transform="translate(811.317 -24.359)" fill="#ffa8a7"/>
    <path id="Path_118" data-name="Path 118" d="M147.279,118.222s8.422-.531,13.349,3.5,7.987,15.3,11.6,26.569,6.849,22.23,8.039,30.131c1,6.6-.3,41.557-.3,41.557a28.779,28.779,0,0,1-15.057-2.666l-3.52-37.276-14.112-38.284A36.567,36.567,0,0,1,147.279,118.222Z" transform="translate(810.193 -28.694)" fill="#f0f0f0"/>
    <g id="Group_74" data-name="Group 74" transform="translate(852.041 115.5)">
      <path id="Path_119" data-name="Path 119" d="M52.049,142.76l41.741,14.727,11.489,49.669-.932.992L64.663,193.326,51.117,143.752Z" transform="translate(-51.117 -142.76)" fill="#27debf"/>
      <path id="Path_120" data-name="Path 120" d="M89.119,157.159l11.489,49.669.931-.992L90.051,156.167Z" transform="translate(-47.378 -141.441)" opacity="0.35"/>
      <path id="Path_121" data-name="Path 121" d="M51.117,143.663,92.858,158.39l11.489,49.669L64.663,193.237Z" transform="translate(-51.117 -142.671)" fill="#60c5bf"/>
      <g id="Group_68" data-name="Group 68" transform="translate(10.752 40.341)" opacity="0.2">
        <path id="Path_122" data-name="Path 122" d="M69.906,179.618c-.387.976-3.584,3.124-8.217,2.738l-.783-2.868Z" transform="translate(-60.906 -179.488)"/>
      </g>
      <g id="Group_69" data-name="Group 69" transform="translate(12.219 9.034)" opacity="0.1">
        <path id="Path_123" data-name="Path 123" d="M62.6,153.117l-.345-1.665c-.19-.92,2.259-.437,5.472,1.079l7.533,2.281c3.212,1.516,6.248,2.644,6.438,3.564l.345,1.665Z" transform="translate(-62.242 -150.985)"/>
      </g>
      <g id="Group_70" data-name="Group 70" transform="translate(10.083 2.961)">
        <path id="Path_124" data-name="Path 124" d="M60.307,146.129c-.121-.576.831-.458,2.165-.1l2.4.818s-.98-2.414,4.709-.873c6.26,1.7,6.394,4.821,6.394,4.821a27.3,27.3,0,0,0,3.007,1.1c2.078.674,2.309,1.082,2.479,1.665l.308,1.056L60.5,147.115S60.428,146.7,60.307,146.129Z" transform="translate(-60.297 -145.456)" fill="#37474f"/>
      </g>
      <g id="Group_71" data-name="Group 71" transform="translate(11.703 4.753)">
        <path id="Path_125" data-name="Path 125" d="M62.4,149.162c1.97.894,2.789,1.33,3.083,2.748.336,1.619.406,2.295.406,2.295l11.08,4.372s-.6-2.385-.747-3.18,1.317-.8,3.237.086L79,153.495l-17.229-6.408Z" transform="translate(-61.772 -147.087)" fill="#37474f"/>
      </g>
      <g id="Group_72" data-name="Group 72" transform="translate(11.647 9.063)">
        <path id="Path_126" data-name="Path 126" d="M62.076,153.143l-.345-1.666c-.19-.919,2.259-.436,5.472,1.08l7.534,2.28c3.212,1.516,6.246,2.645,6.437,3.565l.345,1.665Z" transform="translate(-61.721 -151.011)" fill="#37474f"/>
      </g>
      <g id="Group_73" data-name="Group 73" transform="translate(1.346 17.015)">
        <path id="Path_127" data-name="Path 127" d="M55.639,159.22s1.478,5.447,1.865,6.826,7.226,4.532,10.649,4.959c6.544.816,7.288,2.234,5.714,6.885-1.451,4.287-5.714,5.9-11.622,5.205a10.7,10.7,0,0,1-8.1-7.077c-1.917-5.477-.884-11.324-1.645-14.523S53.973,157.313,55.639,159.22Z" transform="translate(-52.343 -158.251)" fill="#ffa8a7"/>
      </g>
    </g>
    <g id="Group_77" data-name="Group 77" transform="translate(908.337 28.437)">
      <path id="Path_128" data-name="Path 128" d="M151.929,73.439l-5.872,4.8a3.561,3.561,0,0,1,.5-5.152A3.919,3.919,0,0,1,151.929,73.439Z" transform="translate(-98.16 -55.389)" fill="#455a64"/>
      <path id="Path_129" data-name="Path 129" d="M140.8,117.948c0-3.682,8.578-9.2,13.006-16.948s2.223-20.457-3.849-22.416c0,0-.114-11.577-15.732-14.651S113.7,57.4,110.934,56.912s-3.327,9.349.34,11.933a21.661,21.661,0,0,1-7.025-4.506c-2.274-2.2-3.173,9.249,1.729,13.265,0,0-4.057,2.38-3.565,8.406a10.036,10.036,0,0,0,7.769,9.34Z" transform="translate(-102.371 -56.894)" fill="#455a64"/>
      <path id="Path_130" data-name="Path 130" d="M113.76,72.96c-3.766,1.632-7.346,7.391-7.292,23.5.046,13.657,4.233,17.112,6.349,18.124s6.243.5,10.258-.115l-.014,7.851s-3.007,2.951-1.954,4.818c.992,1.76,4.957,3.431,11.01,1.532,6.865-2.154,8.436-6.739,8.436-6.739l.136-17.176s2.31,2.427,6.372-1.131c3.353-2.936,4.559-7.974,2.042-10.739s-5.754-2.989-8.674.1l-2.1-1.106c-3.73-.435-9.259-1.063-13.254-3.1C114.75,83.524,113.684,77.8,113.76,72.96Z" transform="translate(-101.968 -55.313)" fill="#ffa8a7"/>
      <path id="Path_131" data-name="Path 131" d="M137.691,89.17l-.046,7.587a3.562,3.562,0,0,1-3.651-3.671A3.92,3.92,0,0,1,137.691,89.17Z" transform="translate(-99.26 -53.718)" fill="#455a64"/>
      <g id="Group_75" data-name="Group 75" transform="translate(7.81 34.689)">
        <path id="Path_132" data-name="Path 132" d="M113.107,90.3a1.814,1.814,0,1,1-1.88-1.821A1.843,1.843,0,0,1,113.107,90.3Z" transform="translate(-109.482 -88.476)" fill="#263238"/>
      </g>
      <g id="Group_76" data-name="Group 76" transform="translate(21.998 35.365)">
        <path id="Path_133" data-name="Path 133" d="M126.289,91.047a1.947,1.947,0,1,1-2.019-1.955A1.979,1.979,0,0,1,126.289,91.047Z" transform="translate(-122.399 -89.091)" fill="#263238"/>
      </g>
      <path id="Path_134" data-name="Path 134" d="M123.775,101.052l-5.849,1.818a2.985,2.985,0,0,0,3.739,2.244A3.354,3.354,0,0,0,123.775,101.052Z" transform="translate(-100.841 -52.55)" fill="#f28f8f"/>
      <path id="Path_135" data-name="Path 135" d="M108.426,87.377l4.671-1.855a2.413,2.413,0,0,0-3.237-1.431A2.6,2.6,0,0,0,108.426,87.377Z" transform="translate(-101.789 -54.236)" fill="#263238"/>
      <path id="Path_136" data-name="Path 136" d="M117.327,88.794l.233,11.186-6.013-1.341Z" transform="translate(-101.469 -53.755)" fill="#f28f8f"/>
      <path id="Path_137" data-name="Path 137" d="M121.587,111.334c4.229-.5,12.953-2.922,14.373-6.467a9.3,9.3,0,0,1-3.128,4.5c-2.636,2.262-11.25,4.61-11.25,4.61Z" transform="translate(-100.481 -52.174)" fill="#f28f8f"/>
    </g>
    <path id="Path_138" data-name="Path 138" d="M138.457,111.877c1.107-.225,2.092.253,2.994,1.787s2.89,4.77,2.89,4.77,1.024,10.72,0,13.382c-.886,2.308-10.689,10.98-10.689,10.98s2.559,9.628,2.649,12.786-6.077,15.155-6.765,21.291c0,0-1.942-19.3-1.032-26.224,1.582-12.049,7.237-27.6,9.9-32.537Z" transform="translate(808.513 -28.174)" fill="#ebebeb"/>
    <g id="Group_83" data-name="Group 83" transform="translate(940.207 112.19)">
      <g id="Group_78" data-name="Group 78" transform="translate(0.284 0.275)">
        <path id="Path_139" data-name="Path 139" d="M138.376,175.5a8.544,8.544,0,0,1-4.81,1.4l.134-1.093a6.916,6.916,0,0,0,3.709-1.03,13.411,13.411,0,0,1-2.758-2.965c-1.572-2.431-4.05-19.072-2.532-22.773,1.26-3.074,4.933-9.742,7.723-9.742h.074c2.8.12,5.937,7.169,6.941,10.366,1.2,3.815-2.683,20.186-4.456,22.477a13.446,13.446,0,0,1-3,2.718,7.125,7.125,0,0,0,3.608,1.342l.042,1.1-.133,0A8.781,8.781,0,0,1,138.376,175.5Zm-5.237-26.046c-1.395,3.4.978,19.5,2.437,21.758a12.79,12.79,0,0,0,2.856,2.961,12.751,12.751,0,0,0,3.1-2.707c1.645-2.126,5.377-17.969,4.277-21.473-1.346-4.289-4.295-9.526-5.937-9.6h-.035C138.178,140.394,134.83,145.321,133.139,149.452Z" transform="translate(-131.646 -139.293)" fill="#455a64"/>
      </g>
      <g id="Group_79" data-name="Group 79" transform="translate(0.656 35.714)">
        <path id="Path_140" data-name="Path 140" d="M131.985,173.106a1.616,1.616,0,1,0,1.683-1.547A1.616,1.616,0,0,0,131.985,173.106Z" transform="translate(-131.984 -171.558)" fill="#263238"/>
      </g>
      <g id="Group_80" data-name="Group 80" transform="translate(10.051 36.114)">
        <path id="Path_141" data-name="Path 141" d="M140.539,173.47a1.617,1.617,0,1,0,1.684-1.546A1.618,1.618,0,0,0,140.539,173.47Z" transform="translate(-140.538 -171.922)" fill="#263238"/>
      </g>
      <g id="Group_82" data-name="Group 82">
        <g id="Group_81" data-name="Group 81">
          <path id="Path_142" data-name="Path 142" d="M131.871,156.273l.927-.063a.364.364,0,0,0,.334-.387c-.188-3.073-.086-5.337.286-6.243,1.627-3.97,5-8.95,6.464-8.887s4.4,5.311,5.689,9.4c.292.935.2,3.2-.246,6.244a.365.365,0,0,0,.3.414l.918.141a.368.368,0,0,0,.414-.312c.505-3.419.569-5.766.188-6.981-.689-2.2-3.928-10.421-7.192-10.56s-7.19,7.782-8.061,9.911c-.483,1.175-.621,3.52-.406,6.972A.37.37,0,0,0,131.871,156.273Z" transform="translate(-131.387 -139.042)" fill="#27debf"/>
        </g>
      </g>
    </g>
    <path id="Path_143" data-name="Path 143" d="M44.355,89.055V102.7l11.818-6.823v13.646L67.99,102.7V89.055l11.818-6.823V68.587L67.953,75.43l.036-13.667L56.172,68.586V82.232Z" transform="translate(800.258 -27.978)" fill="#2d80c4"/>
    <path id="Path_144" data-name="Path 144" d="M44.808,100.518l-5.065-2.924V83.948l5.065,2.924Z" transform="translate(799.805 -25.795)" fill="#27debf"/>
    <path id="Path_145" data-name="Path 145" d="M56.626,80.66l-5.065-2.924L39.744,84.56l5.065,2.924Z" transform="translate(799.805 -26.406)" fill="#27debf"/>
    <path id="Path_146" data-name="Path 146" d="M55.567,68.237,50.5,65.313V78.959l5.065,2.924Z" transform="translate(800.863 -27.628)" fill="#27debf"/>
    <path id="Path_147" data-name="Path 147" d="M67.385,62.025,62.32,59.1,50.5,65.924l5.065,2.924Z" transform="translate(800.863 -28.239)" fill="#27debf"/>
    <path id="Path_148" data-name="Path 148" d="M55.567,106.468,50.5,103.544v-7.8l5.065-2.924Z" transform="translate(800.863 -19.916)" fill="#27debf"/>
    <g id="Group_84" data-name="Group 84" transform="translate(839.548 37.685)" opacity="0.74">
      <path id="Path_149" data-name="Path 149" d="M44.808,100.518l-5.065-2.924V83.948l5.065,2.924Z" transform="translate(-39.744 -63.48)" fill="#f5c220"/>
      <path id="Path_150" data-name="Path 150" d="M55.567,68.237,50.5,65.313V78.959l5.065,2.924Z" transform="translate(-38.685 -65.313)" fill="#f5c220"/>
      <path id="Path_151" data-name="Path 151" d="M55.567,106.468,50.5,103.544v-7.8l5.065-2.924Z" transform="translate(-38.685 -62.607)" fill="#f5c220"/>
    </g>
    <path id="Path_152" data-name="Path 152" d="M77.694,68.237l-5.065-2.924L65.855,69.2l-.016,5.881Z" transform="translate(802.372 -27.628)" fill="#27debf"/>
    <g id="Group_85" data-name="Group 85" transform="translate(839.548 30.862)" opacity="0.5">
      <path id="Path_153" data-name="Path 153" d="M56.626,80.66l-5.065-2.924L39.744,84.56l5.065,2.924Z" transform="translate(-39.744 -57.268)" fill="#f5c220"/>
      <path id="Path_154" data-name="Path 154" d="M67.385,62.025,62.32,59.1,50.5,65.924l5.065,2.924Z" transform="translate(-38.685 -59.101)" fill="#f5c220"/>
      <path id="Path_155" data-name="Path 155" d="M77.694,68.237l-5.065-2.924L65.855,69.2l-.016,5.881Z" transform="translate(-37.176 -58.49)" fill="#f5c220"/>
    </g>
    <path id="Path_156" data-name="Path 156" d="M437.016,69.659c0,1.344.889,2.69,2.667,3.717a14.228,14.228,0,0,0,12.875,0c1.778-1.027,2.667-2.371,2.667-3.717V57.686a9.117,9.117,0,0,0-18.233,0Z" transform="translate(838.885 -29.276)" fill="#f5f5f5"/>
    <path id="Path_157" data-name="Path 157" d="M436.992,83.572a9.117,9.117,0,1,0,18.233,0V67.77c0,1.346-.889,2.69-2.667,3.717a14.228,14.228,0,0,1-12.875,0c-1.778-1.027-2.667-2.372-2.667-3.717Z" transform="translate(838.885 -27.387)" fill="#84c140"/>
    <path id="Path_158" data-name="Path 158" d="M448.78,88.607a3.489,3.489,0,0,1-3.488-3.488V66.567a13.159,13.159,0,0,1,6.45,1.539c.188.109.36.222.528.337V85.119A3.489,3.489,0,0,1,448.78,88.607Z" transform="translate(839.702 -27.505)" fill="#70b226" opacity="0.92"/>
    <path id="Path_159" data-name="Path 159" d="M437.016,69.659c0,1.344.889,2.69,2.667,3.717a14.228,14.228,0,0,0,12.875,0c1.778-1.027,2.667-2.371,2.667-3.717V57.686a9.117,9.117,0,0,0-18.233,0Z" transform="translate(838.885 -29.276)" fill="#f5f5f5"/>
    <path id="Path_160" data-name="Path 160" d="M452.556,71.487a14.228,14.228,0,0,1-12.875,0c-1.778-1.027-2.667-2.372-2.667-3.717v1.32c0,1.346.889,2.691,2.667,3.717a14.228,14.228,0,0,0,12.875,0c1.778-1.026,2.667-2.371,2.667-3.717V67.77C455.223,69.116,454.334,70.46,452.556,71.487Z" transform="translate(838.887 -27.387)" opacity="0.1"/>
    <path id="Path_161" data-name="Path 161" d="M451.472,50.324h0a9.106,9.106,0,0,0-14.48,7.361l.024,11.973c0,1.344.889,2.69,2.667,3.717a10.825,10.825,0,0,0,2.614,1.048V56.047C442.3,50.8,448.86,48.88,451.472,50.324Z" transform="translate(838.885 -29.276)" fill="#e0e0e0"/>
    <path id="Path_162" data-name="Path 162" d="M448.78,52.489a3.489,3.489,0,0,0-3.488,3.488V74.529a13.16,13.16,0,0,0,6.45-1.539c.188-.109.36-.223.528-.338V55.977A3.489,3.489,0,0,0,448.78,52.489Z" transform="translate(839.702 -28.89)" fill="#fff"/>
    <path id="Path_163" data-name="Path 163" d="M447.251,92.61c.172-.021.345-.047.515-.078q.184-.035.366-.076c.135-.031.267-.066.4-.1s.28-.077.416-.122c.069-.022.136-.051.205-.075a9.17,9.17,0,0,0,1.71-.817l.044-.026q.29-.181.565-.38h0c-2.612,1.444-9.175-.477-9.175-5.723V72.535a10.826,10.826,0,0,1-2.614-1.048c-1.778-1.027-2.667-2.372-2.667-3.717l-.024,15.8a9.116,9.116,0,0,0,9.117,9.117c.286,0,.567-.016.846-.043C447.053,92.637,447.152,92.623,447.251,92.61Z" transform="translate(838.885 -27.387)" fill="#2d80c4" opacity="0.91"/>
  </g>
</svg>
